<svg xmlns="http://www.w3.org/2000/svg" viewBox="0 0 800 400" preserveAspectRatio="xMidYMid slice">
  <defs>
    <linearGradient id="g2" x1="0" y1="0" x2="1" y2="1">
      <stop offset="0%" stop-color="#7c3aed"/>
      <stop offset="100%" stop-color="#ec4899"/>
    </linearGradient>
  </defs>
  <rect width="800" height="400" fill="url(#g2)"/>
  <g transform="translate(220,80)" fill="#fff">
    <rect x="0" y="0" width="360" height="50" rx="10" opacity="0.25"/>
    <rect x="0" y="60" width="360" height="44" rx="8" opacity="0.85"/>
    <circle cx="22" cy="82" r="9" fill="#7c3aed"/>
    <path d="M16 82 l5 5 l9 -10" stroke="#fff" stroke-width="2.5" fill="none"/>
    <rect x="40" y="76" width="200" height="12" rx="3" fill="#1f2937"/>
    <rect x="0" y="114" width="360" height="44" rx="8" opacity="0.85"/>
    <circle cx="22" cy="136" r="9" fill="none" stroke="#7c3aed" stroke-width="2"/>
    <rect x="40" y="130" width="240" height="12" rx="3" fill="#1f2937"/>
    <rect x="0" y="168" width="360" height="44" rx="8" opacity="0.85"/>
    <circle cx="22" cy="190" r="9" fill="none" stroke="#7c3aed" stroke-width="2"/>
    <rect x="40" y="184" width="180" height="12" rx="3" fill="#1f2937"/>
  </g>
  <text x="60" y="360" font-family="system-ui, sans-serif" font-size="20" font-weight="700" fill="#fff" opacity="0.85">
    할 일 관리 앱 (Todo)
  </text>
</svg>
